<?xml version="1.0" ?><svg height="74.666664" id="svg9" version="1.1" viewBox="0 0 60 74.666664" width="60" xmlns="http://www.w3.org/2000/svg" xmlns:svg="http://www.w3.org/2000/svg"><defs id="defs13"><clipPath clipPathUnits="userSpaceOnUse" id="clipPath383"><path d="M 0,64 H 64 V 0 H 0 Z" id="path381"/></clipPath></defs><g id="g375" transform="matrix(1.3333333,0,0,-1.3333333,-13.293333,79.999998)"><g id="g377"><g clip-path="url(#clipPath383)" id="g379"><g id="g385" transform="translate(17.0586,32.3516)"><path d="m 0,0 c -0.253,0 -0.506,0.095 -0.701,0.287 -1.534,1.507 -2.379,3.512 -2.379,5.644 0,2.132 0.845,4.137 2.379,5.645 0.393,0.387 1.027,0.382 1.414,-0.013 C 1.1,11.169 1.095,10.536 0.701,10.149 -0.448,9.021 -1.08,7.522 -1.08,5.931 -1.08,4.34 -0.448,2.842 0.701,1.713 1.095,1.326 1.1,0.693 0.713,0.299 0.518,0.1 0.259,0 0,0" id="path387" style="fill:#231f20;fill-opacity:1;fill-rule:nonzero;stroke:none"/></g><g id="g389" transform="translate(19.8208,33.7964)"><path d="m 0,0 c -0.253,0 -0.506,0.095 -0.701,0.287 -1.141,1.121 -1.77,2.613 -1.77,4.199 0,1.587 0.629,3.079 1.77,4.201 C -0.308,9.074 0.326,9.07 0.713,8.675 1.1,8.281 1.095,7.648 0.701,7.261 -0.055,6.518 -0.471,5.533 -0.471,4.487 -0.471,3.44 -0.055,2.456 0.701,1.713 1.095,1.326 1.1,0.693 0.713,0.299 0.518,0.1 0.259,0 0,0" id="path391" style="fill:#231f20;fill-opacity:1;fill-rule:nonzero;stroke:none"/></g><g id="g393" transform="translate(36.8892,32.3481)"><path d="M 0,0 C -0.259,0 -0.518,0.1 -0.713,0.299 -1.1,0.693 -1.095,1.326 -0.701,1.713 0.448,2.842 1.08,4.34 1.08,5.931 c 0,1.591 -0.632,3.09 -1.781,4.218 -0.394,0.387 -0.399,1.02 -0.012,1.414 0.386,0.395 1.02,0.4 1.414,0.013 C 2.235,10.068 3.08,8.063 3.08,5.931 3.08,3.799 2.235,1.794 0.701,0.287 0.506,0.095 0.253,0 0,0" id="path395" style="fill:#231f20;fill-opacity:1;fill-rule:nonzero;stroke:none"/></g><g id="g397" transform="translate(34.1445,33.791)"><path d="m 0,0 c -0.259,0 -0.518,0.1 -0.713,0.299 -0.387,0.394 -0.382,1.027 0.012,1.414 0.756,0.743 1.172,1.728 1.172,2.774 0,1.046 -0.416,2.031 -1.172,2.773 -0.394,0.387 -0.399,1.021 -0.012,1.415 0.386,0.393 1.019,0.4 1.414,0.012 1.141,-1.122 1.77,-2.613 1.77,-4.2 C 2.471,2.9 1.842,1.408 0.701,0.287 0.506,0.095 0.253,0 0,0" id="path399" style="fill:#231f20;fill-opacity:1;fill-rule:nonzero;stroke:none"/></g><g id="g401" transform="translate(32.4702,38.2202)"><path d="M 0,0 -2.19,-8.201 C -2.33,-8.74 -2.78,-9.13 -3.33,-9.21 c -0.06,-0.01 -0.12,-0.01 -0.18,-0.01 -0.48,0 -0.92,0.25 -1.17,0.679 l -2.83,5.321 h -1.72 c -0.38,0 -0.75,0.16 -1.01,0.44 -0.26,0.29 -0.39,0.67 -0.35,1.05 l 0.73,8.27 c 0.07,0.71 0.65,1.24 1.36,1.24 h 4.69 c 0.39,0 0.77,-0.17 1.03,-0.47 0.26,-0.3 0.37,-0.69 0.32,-1.08 L -3.08,1.78 H -1 L -0.74,1.6 C -0.12,1.17 0.16,0.57 0,0" id="path403" style="fill:#231f20;fill-opacity:1;fill-rule:nonzero;stroke:none"/></g><path d="m 52.97,38 h -4 v 4 h 4 z m -20,-26 h 4 v -2 h -4 z m -1,3.5 v 1 c 0,0.28 0.22,0.5 0.5,0.5 h 5 c 0.27,0 0.5,-0.22 0.5,-0.5 v -1 c 0,-0.28 -0.23,-0.5 -0.5,-0.5 h -5 c -0.28,0 -0.5,0.22 -0.5,0.5 M 15.88,20 c -2.08,0 -3.91,2 -3.91,4.28 v 29.81 c 0,2.16 1.75,3.91 3.91,3.91 h 22.18 c 2.15,0 3.91,-1.75 3.91,-3.91 V 24.28 C 41.97,22 40.14,20 38.06,20 Z m 14.09,-4.5 c 0,-0.28 -0.23,-0.5 -0.5,-0.5 h -3 c -0.28,0 -0.5,0.22 -0.5,0.5 v 1 c 0,0.28 0.22,0.5 0.5,0.5 h 3 c 0.27,0 0.5,-0.22 0.5,-0.5 z m -14,-1 c -0.82,0 -1.5,0.68 -1.5,1.5 0,0.82 0.68,1.5 1.5,1.5 0.83,0 1.5,-0.68 1.5,-1.5 0,-0.82 -0.67,-1.5 -1.5,-1.5 m 38,29.5 v 1.88 c 0,0.27 -0.11,0.52 -0.29,0.71 l -1.12,1.12 C 52.38,47.89 52.12,48 51.86,48 h -2.89 c -0.55,0 -1,-0.45 -1,-1 v -3 c -0.55,0 -1,-0.45 -1,-1 v -6 c 0,-0.55 0.45,-1 1,-1 h 2 V 6 h -14 v 2 h 2 c 0.55,0 1,0.45 1,1 v 3.03 c 2.8,0.29 5,2.69 5,5.61 v 36.45 c 0,3.26 -2.65,5.91 -5.91,5.91 H 15.88 C 12.62,60 9.97,57.35 9.97,54.09 V 17.64 C 9.97,14.53 12.47,12 15.54,12 H 30.97 V 9 c 0,-0.55 0.45,-1 1,-1 h 2 V 5 c 0,-0.55 0.45,-1 1,-1 h 16 c 0.55,0 1,0.45 1,1 v 31 h 2 c 0.55,0 1,0.45 1,1 v 6 c 0,0.55 -0.45,1 -1,1" id="path405" style="fill:#231f20;fill-opacity:1;fill-rule:nonzero;stroke:none"/></g></g></g></svg>