<svg aria-hidden="true" style="position: absolute; width: 0; height: 0; overflow: hidden;" version="1.1" xmlns="http://www.w3.org/2000/svg" xmlns:xlink="http://www.w3.org/1999/xlink">
<defs>
<symbol id="icon-galleri" viewBox="0 0 32 32">
<path d="M3.366 22.353v4.337c0 0.924 0.648 1.7 1.514 1.896zM5.618 29.777h-0.308c-1.702 0-3.087-1.384-3.087-3.087v-9.112c0-0.289 0.216-0.533 0.503-0.567 0.288-0.033 0.555 0.152 0.623 0.433l2.823 11.627c0.041 0.17 0.002 0.35-0.106 0.488s-0.274 0.218-0.45 0.218z"></path>
<path d="M5.31 3.366c-0.924 0-1.7 0.648-1.896 1.514l6.233-1.514zM2.795 6.189c-0.127 0-0.251-0.042-0.353-0.122-0.138-0.109-0.218-0.274-0.218-0.45v-0.308c0-1.702 1.384-3.087 3.087-3.087h9.112c0.29 0 0.533 0.216 0.567 0.503s-0.151 0.555-0.433 0.623l-11.627 2.823c-0.045 0.011-0.090 0.016-0.135 0.016z"></path>
<path d="M27.12 3.414l1.514 6.233v-4.337c0-0.924-0.648-1.7-1.514-1.896zM29.205 14.993c-0.261 0-0.492-0.178-0.555-0.437l-2.823-11.627c-0.041-0.17-0.002-0.35 0.106-0.488s0.274-0.218 0.45-0.218h0.308c1.702 0 3.087 1.384 3.087 3.087v9.112c0 0.289-0.216 0.533-0.503 0.567-0.023 0.003-0.046 0.004-0.069 0.004z"></path>
<path d="M22.353 28.634h4.337c0.924 0 1.7-0.648 1.896-1.514zM26.69 29.777h-9.112c-0.289 0-0.533-0.216-0.567-0.503s0.151-0.555 0.433-0.623l11.627-2.823c0.17-0.041 0.35-0.002 0.488 0.106s0.218 0.274 0.218 0.45v0.308c0 1.702-1.384 3.087-3.087 3.087z"></path>
<path fill="none" stroke="#231f20" stroke-width="0.8571" stroke-miterlimit="10" stroke-linecap="round" stroke-linejoin="round" style="stroke: var(--color1, #231f20)" d="M31.359 23.268l-2.154-8.844-2.823-11.628-0.074-0.303c-0.326-1.343-1.686-2.177-3.040-1.851l-20.775 5.051c-1.343 0.326-2.177 1.686-1.851 3.040l2.154 8.844 2.823 11.628 0.074 0.303c0.326 1.343 1.686 2.177 3.040 1.851l20.775-5.051c1.343-0.326 2.177-1.686 1.851-3.040z"></path>
<path d="M22.45 19.273l-9.856-8.611c-0.14-0.122-0.331-0.169-0.511-0.125s-0.328 0.173-0.397 0.346l-4.805 12.17c-0.078 0.198-0.039 0.424 0.101 0.585 0.11 0.126 0.267 0.196 0.431 0.196 0.045 0 0.090-0.005 0.134-0.016l14.662-3.56c0.207-0.050 0.37-0.212 0.42-0.419s-0.018-0.426-0.179-0.566z"></path>
<path d="M27.94 17.925l-7.279-6c-0.131-0.108-0.303-0.151-0.47-0.121-0.167 0.032-0.311 0.137-0.393 0.285l-2.154 3.903c-0.13 0.235-0.078 0.529 0.124 0.706l3.931 3.434c0.105 0.092 0.239 0.141 0.376 0.141 0.045 0 0.090-0.005 0.135-0.016l5.502-1.337c0.21-0.051 0.374-0.217 0.422-0.427s-0.026-0.431-0.193-0.569z"></path>
<path d="M18.286 9.144c0 0.947-0.767 1.714-1.714 1.714s-1.714-0.767-1.714-1.714c0-0.947 0.767-1.714 1.714-1.714s1.714 0.767 1.714 1.714z"></path>
</symbol>
<symbol id="icon-hdd" viewBox="0 0 23 32">
<path d="M19.863 0h-16.869c-1.651 0-2.994 1.343-2.994 2.994v17.006c0-0.314 0.257-0.571 0.571-0.571h0.571v-16.434c0-1.023 0.829-1.851 1.851-1.851h16.869c1.023 0 1.851 0.829 1.851 1.851v24.434h0.571c0.314 0 0.571 0.257 0.571 0.571v-25.006c0-1.651-1.343-2.994-2.994-2.994z"></path>
<path d="M6.286 30.286h-3.429c-0.314 0-0.571-0.257-0.571-0.571s0.257-0.571 0.571-0.571h3.429c0.314 0 0.571 0.257 0.571 0.571s-0.257 0.571-0.571 0.571zM22.286 27.429h-21.714c-0.314 0-0.571 0.257-0.571 0.571v1.006c0 1.651 1.343 2.994 2.994 2.994h11.829v-2.286c0-0.314 0.257-0.571 0.571-0.571s0.571 0.257 0.571 0.571v2.286h0.606v-2.286c0-0.314 0.257-0.571 0.571-0.571s0.571 0.257 0.571 0.571v2.286h0.606v-2.286c0-0.314 0.257-0.571 0.571-0.571s0.571 0.257 0.571 0.571v2.286h0.4c1.651 0 2.994-1.343 2.994-2.994v-1.006c0-0.314-0.257-0.571-0.571-0.571z"></path>
<path d="M11.429 16.32c-2.069 0-3.749-1.679-3.749-3.749s1.68-3.748 3.749-3.748 3.749 1.679 3.749 3.748c0 2.069-1.68 3.749-3.749 3.749zM11.429 4c-4.726 0-8.571 3.846-8.571 8.571 0 2.937 1.457 5.589 3.863 7.161 0.309-0.132 0.629-0.281 0.96-0.457 0.086-0.046 0.171-0.091 0.257-0.143 0.229-0.126 0.451-0.257 0.669-0.4 0.217-0.138 0.429-0.281 0.64-0.435 0.114-0.085 0.234-0.171 0.349-0.269 0.029-0.017 0.063-0.039 0.091-0.069 0.057-0.046 0.12-0.091 0.177-0.143 0.2-0.159 0.394-0.331 0.589-0.509 0.029-0.028 0.057-0.051 0.091-0.069 0.023-0.011 0.046-0.028 0.069-0.034 0.023-0.012 0.051-0.023 0.080-0.029 0.011-0.006 0.017-0.006 0.023-0.006 0.080-0.023 0.154-0.023 0.229-0.011 0.12 0.017 0.229 0.069 0.32 0.159 0.046 0.046 0.080 0.103 0.109 0.16 0.017 0.041 0.029 0.081 0.034 0.12 0.011 0.041 0.011 0.074 0.011 0.114 0.006 0.051 0 0.097-0.017 0.143v0.006c-0.006 0.046-0.029 0.091-0.057 0.137-0.006 0.006-0.006 0.018-0.011 0.023l-0.040 0.063v0.006c-0.006 0.005-0.011 0.011-0.017 0.023-0.017 0.034-0.046 0.069-0.069 0.114-0.029 0.039-0.051 0.079-0.080 0.126-0.143 0.228-0.354 0.571-0.594 0.988-0.046 0.081-0.091 0.16-0.137 0.24-0.057 0.103-0.12 0.211-0.177 0.321-0.12 0.211-0.24 0.434-0.366 0.663-0.069 0.131-0.137 0.263-0.2 0.388 0.583 0.126 1.183 0.189 1.777 0.189 4.726 0 8.571-3.846 8.571-8.571s-3.846-8.571-8.571-8.571z"></path>
<path d="M2.286 27.143c-0.469 0-0.857-0.389-0.857-0.857s0.389-0.857 0.857-0.857c0.469 0 0.857 0.389 0.857 0.857s-0.389 0.857-0.857 0.857zM9.132 24.977c-0.006-0.046-0.023-0.091-0.046-0.137-0.011-0.040-0.040-0.080-0.069-0.114-0.017-0.023-0.034-0.046-0.051-0.063-0.023-0.023-0.051-0.046-0.086-0.069-0.029-0.017-0.057-0.034-0.091-0.046-0.029-0.011-0.057-0.023-0.091-0.029-0.069-0.017-0.149-0.017-0.223-0.006-0.097 0.017-0.189 0.029-0.28 0.046-0.183 0.023-0.349 0.046-0.509 0.057-0.069 0.006-0.137 0.011-0.2 0.017h-0.040c-0.154 0.011-0.303 0.017-0.446 0.017-0.086 0-0.166 0-0.246-0.006-0.069 0-0.131-0.006-0.194-0.011-0.223-0.011-0.423-0.040-0.611-0.086-0.103-0.023-0.2-0.046-0.291-0.080-0.366-0.12-0.663-0.303-0.886-0.549-0.549-0.594-0.617-1.497-0.543-2.263 0.017-0.143 0.034-0.286 0.057-0.423 0.051-0.326 0.126-0.606 0.171-0.789 0.006-0.029 0.017-0.057 0.029-0.080 0.006-0.034 0.017-0.063 0.029-0.091 0.006-0.023 0.011-0.046 0.017-0.057 0.006-0.017 0.006-0.023 0.006-0.023 0.034-0.091 0.040-0.189 0.029-0.28-0.011-0.057-0.029-0.114-0.051-0.166s-0.057-0.097-0.097-0.137c-0.029-0.034-0.063-0.063-0.103-0.086-0.040-0.029-0.080-0.046-0.12-0.063-0.063-0.023-0.126-0.034-0.194-0.034h-3.429c-0.314 0-0.571 0.257-0.571 0.571v8c0-0.314 0.257-0.571 0.571-0.571h8.571v-2.349c0-0.034-0.006-0.069-0.011-0.103z"></path>
<path d="M4.486 20.366c-0.011 0.023-0.017 0.052-0.023 0.081h-0.006c0.006-0.029 0.017-0.058 0.029-0.081z"></path>
<path d="M21.143 26.286c0 0.316-0.256 0.571-0.571 0.571s-0.571-0.255-0.571-0.571c0-0.316 0.256-0.571 0.571-0.571s0.571 0.255 0.571 0.571z"></path>
<path d="M21.143 2.857c0 0.316-0.256 0.571-0.571 0.571s-0.571-0.255-0.571-0.571c0-0.316 0.256-0.571 0.571-0.571s0.571 0.255 0.571 0.571z"></path>
<path d="M2.857 2.857c0 0.316-0.256 0.571-0.571 0.571s-0.571-0.255-0.571-0.571c0-0.316 0.256-0.571 0.571-0.571s0.571 0.255 0.571 0.571z"></path>
<path d="M11.417 17.714c0 0.046-0.006 0.097-0.017 0.143v0.006c-0.017 0.046-0.034 0.091-0.057 0.137-0.006 0.006-0.006 0.017-0.011 0.023l-0.040 0.063v0.006c-0.006 0.006-0.011 0.011-0.017 0.023-0.017 0.034-0.046 0.069-0.069 0.114-0.029 0.040-0.051 0.080-0.080 0.126-0.143 0.229-0.354 0.571-0.594 0.989-0.046 0.080-0.091 0.16-0.137 0.24-0.057 0.103-0.12 0.211-0.177 0.32-0.12 0.211-0.24 0.434-0.366 0.663-0.069 0.131-0.137 0.263-0.2 0.389-0.423 0.823-0.766 1.589-1.029 2.274-0.074 0.189-0.137 0.377-0.2 0.554-0.091 0.274-0.171 0.531-0.229 0.777-0.183 0.023-0.349 0.046-0.509 0.057-0.069 0.006-0.137 0.011-0.2 0.017h-0.040c-0.154 0.011-0.303 0.017-0.446 0.017 0.246-1.223 0.863-2.771 1.846-4.623 0.023-0.051 0.051-0.097 0.080-0.149-0.234 0.143-0.469 0.274-0.709 0.4-1.743 0.926-3.257 1.257-3.989 1.377 0.017-0.143 0.034-0.286 0.057-0.423 0.051-0.326 0.126-0.606 0.171-0.789h0.006c0.069-0.011 0.137-0.029 0.211-0.046 0.206-0.046 0.434-0.103 0.691-0.177 0.074-0.023 0.149-0.046 0.229-0.074 0.343-0.109 0.72-0.246 1.126-0.417 0.309-0.131 0.629-0.28 0.96-0.457 0.086-0.046 0.171-0.091 0.257-0.143 0.229-0.126 0.451-0.257 0.669-0.4 0.217-0.137 0.429-0.28 0.64-0.434 0.114-0.086 0.234-0.171 0.349-0.269 0.029-0.017 0.063-0.040 0.091-0.069 0.057-0.046 0.12-0.091 0.177-0.143 0.2-0.16 0.394-0.331 0.589-0.509 0.029-0.029 0.057-0.051 0.091-0.069 0.023-0.011 0.046-0.029 0.069-0.034 0.023-0.011 0.051-0.023 0.080-0.029 0.011-0.006 0.017-0.006 0.023-0.006 0.080-0.023 0.154-0.023 0.229-0.011 0.051 0.011 0.103 0.029 0.154 0.057 0.040 0.017 0.074 0.040 0.109 0.069 0.103 0.080 0.171 0.194 0.2 0.314 0.011 0.040 0.011 0.074 0.011 0.114z"></path>
<path d="M11.406 17.6c-0.029-0.12-0.097-0.234-0.2-0.314-0.034-0.029-0.069-0.051-0.109-0.069-0.051-0.029-0.103-0.046-0.154-0.057 0.12 0.017 0.229 0.069 0.32 0.16 0.046 0.046 0.080 0.103 0.109 0.16 0.017 0.040 0.029 0.081 0.034 0.12z"></path>
<path d="M14.079 12.571c0 1.463-1.187 2.65-2.65 2.65s-2.65-1.187-2.65-2.65c0-1.463 1.187-2.65 2.65-2.65s2.65 1.187 2.65 2.65z"></path>
</symbol>
<symbol id="icon-mobil" viewBox="0 0 26 32">
<path d="M4.051 15.799c-0.145 0-0.289-0.054-0.401-0.164-0.877-0.861-1.359-2.007-1.359-3.225s0.483-2.364 1.359-3.226c0.225-0.221 0.587-0.218 0.808 0.007s0.218 0.587-0.007 0.808c-0.657 0.645-1.018 1.501-1.018 2.41s0.361 1.765 1.018 2.41c0.225 0.221 0.228 0.583 0.007 0.808-0.111 0.114-0.259 0.171-0.407 0.171z"></path>
<path d="M5.629 14.973c-0.145 0-0.289-0.054-0.401-0.164-0.652-0.641-1.011-1.493-1.011-2.399s0.359-1.759 1.011-2.401c0.225-0.221 0.587-0.219 0.808 0.007s0.218 0.587-0.007 0.808c-0.432 0.425-0.67 0.987-0.67 1.585s0.238 1.161 0.67 1.585c0.225 0.221 0.228 0.583 0.007 0.808-0.111 0.114-0.259 0.171-0.407 0.171z"></path>
<path d="M15.382 15.801c-0.148 0-0.296-0.057-0.407-0.171-0.221-0.225-0.218-0.587 0.007-0.808 0.657-0.645 1.018-1.501 1.018-2.41s-0.361-1.766-1.018-2.41c-0.225-0.221-0.228-0.583-0.007-0.808s0.583-0.229 0.808-0.007c0.877 0.862 1.359 2.007 1.359 3.226s-0.483 2.364-1.359 3.225c-0.111 0.11-0.256 0.164-0.401 0.164z"></path>
<path d="M13.814 14.977c-0.148 0-0.296-0.057-0.407-0.171-0.221-0.225-0.218-0.587 0.007-0.808 0.432-0.425 0.67-0.987 0.67-1.585s-0.238-1.161-0.67-1.585c-0.225-0.221-0.228-0.583-0.007-0.809s0.582-0.229 0.808-0.007c0.652 0.641 1.011 1.493 1.011 2.4s-0.359 1.759-1.011 2.4c-0.111 0.11-0.256 0.164-0.401 0.164z"></path>
<path d="M12.857 12.446l-1.251 4.686c-0.080 0.308-0.337 0.531-0.651 0.577-0.034 0.006-0.069 0.006-0.103 0.006-0.274 0-0.526-0.143-0.669-0.388l-1.617-3.041h-0.983c-0.217 0-0.429-0.091-0.577-0.251-0.149-0.166-0.223-0.383-0.2-0.6l0.417-4.726c0.040-0.406 0.371-0.709 0.777-0.709h2.68c0.223 0 0.44 0.097 0.589 0.269s0.211 0.394 0.183 0.617l-0.354 2.543h1.189l0.149 0.103c0.354 0.246 0.514 0.589 0.423 0.914z"></path>
<path d="M24.571 12.571h-2.286v-2.286h2.286zM13.143 27.429h2.286v1.143h-2.286zM12.571 25.429v-0.571c0-0.16 0.126-0.286 0.286-0.286h2.857c0.154 0 0.286 0.126 0.286 0.286v0.571c0 0.16-0.131 0.286-0.286 0.286h-2.857c-0.16 0-0.286-0.126-0.286-0.286zM3.377 22.857c-1.189 0-2.234-1.143-2.234-2.446v-17.034c0-1.234 1-2.234 2.234-2.234h12.674c1.229 0 2.234 1 2.234 2.234v17.034c0 1.303-1.046 2.446-2.234 2.446zM11.429 25.429c0 0.16-0.131 0.286-0.286 0.286h-1.714c-0.16 0-0.286-0.126-0.286-0.286v-0.571c0-0.16 0.126-0.286 0.286-0.286h1.714c0.154 0 0.286 0.126 0.286 0.286zM3.429 26c-0.469 0-0.857-0.389-0.857-0.857s0.389-0.857 0.857-0.857c0.474 0 0.857 0.389 0.857 0.857s-0.383 0.857-0.857 0.857zM25.143 9.143v-1.074c0-0.154-0.063-0.297-0.166-0.406l-0.64-0.64c-0.103-0.103-0.251-0.166-0.4-0.166h-1.651c-0.314 0-0.571 0.257-0.571 0.571v1.714c-0.314 0-0.571 0.257-0.571 0.571v3.429c0 0.314 0.257 0.571 0.571 0.571h1.143v17.143h-8v-1.143h1.143c0.314 0 0.571-0.257 0.571-0.571v-1.731c1.6-0.166 2.857-1.537 2.857-3.206v-20.829c0-1.863-1.514-3.377-3.377-3.377h-12.674c-1.863 0-3.377 1.514-3.377 3.377v20.829c0 1.777 1.429 3.223 3.183 3.223h8.817v1.714c0 0.314 0.257 0.571 0.571 0.571h1.143v1.714c0 0.314 0.257 0.571 0.571 0.571h9.143c0.314 0 0.571-0.257 0.571-0.571v-17.714h1.143c0.314 0 0.571-0.257 0.571-0.571v-3.429c0-0.314-0.257-0.571-0.571-0.571z"></path>
</symbol>
<symbol id="icon-steem" viewBox="0 0 32 32">
<path d="M27.020 5.37c-2.755-2.865-6.46-4.53-10.43-4.69-3.965-0.16-7.795 1.2-10.77 3.835-2.98 2.64-4.8 6.27-5.125 10.235-0.020 0.215 0.105 0.42 0.305 0.5l7.95 3.29c0.155 0.065 0.335 0.045 0.475-0.050 0.61-0.42 1.32-0.64 2.065-0.64 0.005 0 0.010 0 0.015 0h0.235c0.165 0 0.32-0.080 0.41-0.215l3.54-5.125c0.060-0.085 0.090-0.185 0.090-0.285v-0.075c0-1.015 0.295-1.995 0.855-2.835 0.565-0.845 1.355-1.49 2.29-1.88s1.95-0.49 2.945-0.29c0.99 0.195 1.895 0.68 2.61 1.395s1.195 1.62 1.395 2.61c0.195 0.995 0.095 2.010-0.29 2.945s-1.035 1.725-1.88 2.29c-0.84 0.56-1.815 0.86-2.83 0.86h-0.13c-0.105 0-0.205 0.035-0.29 0.095l-5.050 3.605c-0.13 0.095-0.21 0.245-0.21 0.405v0.2c0.005 0.925-0.33 1.81-0.95 2.495-0.615 0.69-1.46 1.115-2.38 1.205-0.92 0.095-1.83-0.16-2.57-0.71s-1.245-1.355-1.425-2.26c-0.030-0.165-0.145-0.3-0.3-0.365l-5.685-2.35c-0.175-0.075-0.38-0.040-0.525 0.090-0.145 0.125-0.2 0.325-0.15 0.51 1.010 3.565 3.27 6.645 6.37 8.67 2.505 1.64 5.42 2.5 8.38 2.5 0.7 0 1.41-0.050 2.11-0.145 3.67-0.51 7.025-2.33 9.455-5.125 2.41-2.77 3.745-6.315 3.765-9.98 0.005-0.030 0.010-0.065 0.010-0.1 0-3.98-1.525-7.75-4.28-10.615zM30.295 15.98c0 3.465-1.25 6.81-3.52 9.425-2.27 2.61-5.41 4.315-8.84 4.79s-6.91-0.305-9.81-2.2c-2.595-1.7-4.565-4.19-5.625-7.095l4.45 1.84c0.265 1.040 0.88 1.96 1.745 2.605 0.94 0.7 2.1 1.020 3.27 0.905 1.165-0.115 2.24-0.66 3.025-1.535 0.77-0.855 1.195-1.96 1.205-3.11l4.71-3.36c1.2-0.005 2.36-0.36 3.355-1.030 1.005-0.67 1.78-1.62 2.245-2.74 0.46-1.115 0.585-2.335 0.345-3.525-0.235-1.19-0.815-2.27-1.67-3.125s-1.935-1.435-3.12-1.67c-1.19-0.235-2.405-0.115-3.52 0.345-1.115 0.465-2.065 1.24-2.735 2.245-0.655 0.98-1.010 2.125-1.025 3.305l-3.3 4.785c-0.845 0-1.665 0.23-2.385 0.67l-7.365-3.050c0.385-3.565 2.065-6.82 4.755-9.2 2.785-2.465 6.36-3.73 10.070-3.585 3.71 0.15 7.175 1.705 9.75 4.385 2.555 2.655 3.975 6.14 4.005 9.82-0.010 0.040-0.015 0.075-0.015 0.105z"></path>
<path d="M13.020 23.16c-0.215 0.215-0.47 0.385-0.755 0.5-0.28 0.115-0.585 0.175-0.89 0.175s-0.605-0.060-0.885-0.18l-1.835-0.755c0.26 0.55 0.675 1.010 1.195 1.325s1.12 0.475 1.725 0.46c0.61-0.015 1.2-0.21 1.7-0.555s0.89-0.825 1.125-1.39h0.015c0.235-0.57 0.3-1.195 0.185-1.795-0.115-0.605-0.405-1.165-0.83-1.605-0.43-0.44-0.975-0.75-1.575-0.885s-1.225-0.090-1.8 0.125l1.88 0.78c0.28 0.115 0.535 0.29 0.75 0.505s0.385 0.47 0.5 0.755c0.115 0.28 0.175 0.585 0.175 0.89s-0.060 0.605-0.175 0.89c-0.115 0.29-0.285 0.545-0.505 0.76z"></path>
<path d="M20.035 16.3c0.275 0.055 0.55 0.080 0.83 0.080 0.55 0 1.1-0.11 1.615-0.325 0.775-0.32 1.43-0.86 1.895-1.56 0.465-0.695 0.71-1.51 0.71-2.35 0-1.13-0.44-2.19-1.24-2.99s-1.86-1.24-2.99-1.24c-0.84 0-1.655 0.245-2.35 0.715-0.695 0.465-1.235 1.12-1.555 1.9-0.32 0.775-0.405 1.62-0.24 2.445s0.565 1.575 1.155 2.165c0.595 0.6 1.345 1 2.17 1.16zM17.875 10.915c0.245-0.595 0.655-1.095 1.19-1.45 0 0 0 0 0 0 0.53-0.355 1.15-0.545 1.79-0.545 0.86 0 1.67 0.335 2.28 0.945s0.945 1.42 0.945 2.285c0 0.645-0.19 1.265-0.545 1.795-0.355 0.535-0.855 0.945-1.45 1.19s-1.235 0.31-1.865 0.185c-0.63-0.125-1.2-0.43-1.655-0.885-0.455-0.45-0.76-1.025-0.885-1.655-0.11-0.625-0.050-1.27 0.195-1.865z"></path>
</symbol>
<symbol id="icon-telegram" viewBox="0 0 32 32">
<path d="M23.285 9.585c-0.36-0.29-0.845-0.295-0.935-0.295-0.675 0.010-1.46 0.27-6.065 2.185-1.525 0.635-4.62 1.965-9.195 3.96-0.96 0.385-1.415 0.775-1.475 1.27-0.11 0.895 0.81 1.185 1.705 1.465l0.34 0.11c0.675 0.22 1.91 0.59 2.595 0.605 0.615 0 1.29-0.23 2-0.715 2.435-1.645 3.985-2.68 4.96-3.325-0.78 0.745-1.69 1.595-2.17 2.040-0.39 0.36-0.665 0.62-0.725 0.68-0.12 0.125-0.24 0.24-0.355 0.355-0.51 0.49-0.985 0.95-0.93 1.595 0.055 0.615 0.615 1.050 1.030 1.325 0.64 0.42 1.15 0.77 1.665 1.12 0.565 0.385 1.125 0.77 1.855 1.245 0.18 0.12 0.35 0.24 0.515 0.36 0.635 0.45 1.285 0.915 2.1 0.915 0.065 0 0.13-0.005 0.2-0.010 0.53-0.050 1.225-0.44 1.525-2.020 0.505-2.695 1.545-8.795 1.79-11.38 0.030-0.29-0.010-0.62-0.030-0.755-0.020-0.115-0.080-0.47-0.4-0.73zM22.725 10.97c-0.24 2.52-1.295 8.695-1.78 11.29-0.16 0.865-0.43 1.19-0.63 1.21-0.54 0.050-1.020-0.29-1.63-0.725-0.175-0.125-0.36-0.255-0.55-0.38-0.725-0.475-1.28-0.855-1.84-1.235-0.515-0.35-1.030-0.7-1.675-1.125-0.54-0.355-0.58-0.545-0.585-0.585-0.015-0.165 0.34-0.51 0.625-0.785 0.125-0.12 0.255-0.245 0.385-0.38 0.055-0.055 0.315-0.3 0.685-0.64 3.53-3.28 3.725-3.57 3.79-3.835 0.040-0.175 0.040-0.53-0.23-0.765-0.16-0.145-0.345-0.18-0.495-0.18-0.12 0-0.215 0.025-0.275 0.035-0.155 0.035-0.3 0.070-6.82 4.47-0.54 0.37-1.015 0.565-1.415 0.545-0.4-0.010-1.265-0.215-2.305-0.555l-0.35-0.11c-0.365-0.115-0.85-0.265-0.995-0.39 0.065-0.070 0.26-0.235 0.845-0.465l0.015-0.005c4.575-1.995 7.665-3.325 9.185-3.955 4.055-1.685 5.17-2.1 5.7-2.11 0.095-0.015 0.235 0.030 0.285 0.070 0.015 0.015 0.030 0.035 0.045 0.125 0.005 0.085 0.030 0.32 0.015 0.48z"></path>
<path d="M16 0.125c-8.755 0-15.875 7.12-15.875 15.875s7.12 15.875 15.875 15.875 15.875-7.12 15.875-15.875-7.12-15.875-15.875-15.875zM16 30.875c-8.2 0-14.875-6.675-14.875-14.875s6.675-14.875 14.875-14.875 14.875 6.675 14.875 14.875-6.675 14.875-14.875 14.875z"></path>
</symbol>
<symbol id="icon-wifi" viewBox="0 0 32 32">
<path d="M16 0.29c-8.66 0-15.71 7.050-15.71 15.71s7.050 15.71 15.71 15.71 15.71-7.050 15.71-15.71-7.050-15.71-15.71-15.71zM16 30.71c-8.11 0-14.71-6.6-14.71-14.71s6.6-14.71 14.71-14.71 14.71 6.6 14.71 14.71c0 8.11-6.6 14.71-14.71 14.71z"></path>
<path d="M26.77 11.47c-0.875-0.535-1.85-0.99-2.98-1.405-2.925-1.070-6.095-1.575-9.68-1.575l-0.45-0.005c-0.34-0.005-0.68-0.010-1.020 0.005-1.95 0.080-3.71 0.34-5.425 0.805-0.235 0.065-0.505 0.135-0.755 0.265-0.845 0.435-1.225 1.48-0.86 2.375 0.35 0.87 1.295 1.34 2.245 1.12l0.395-0.090c0.81-0.19 1.645-0.385 2.465-0.505 2.020-0.29 4.095-0.31 6.35-0.065 3.19 0.35 5.685 1.095 7.86 2.345 0.285 0.165 0.59 0.245 0.895 0.245 0.365 0 0.735-0.12 1.075-0.35 0.53-0.365 0.835-0.965 0.82-1.6-0.030-0.64-0.375-1.225-0.935-1.565zM26.305 13.815c-0.31 0.215-0.605 0.235-0.9 0.065-2.295-1.325-4.915-2.11-8.25-2.475-1.075-0.115-2.11-0.175-3.12-0.175-1.19 0-2.34 0.080-3.48 0.245-0.865 0.125-1.72 0.325-2.55 0.52l-0.39 0.090c-0.46 0.11-0.925-0.11-1.090-0.52-0.17-0.42 0.005-0.905 0.395-1.11 0.155-0.080 0.35-0.135 0.605-0.205 1.595-0.435 3.28-0.68 5.155-0.76 0.325-0.015 0.645-0.010 0.97-0.005l0.46 0.005c0 0 0 0 0 0 0.030 0 0.055 0 0.085 0 3.435 0 6.46 0.495 9.25 1.515 1.065 0.39 1.985 0.82 2.8 1.32 0.27 0.165 0.43 0.435 0.44 0.74 0.015 0.3-0.125 0.575-0.38 0.75z"></path>
<path d="M24.745 16.465l-0.445-0.24c-0.59-0.32-1.2-0.65-1.835-0.92-3.040-1.28-6.36-1.85-9.875-1.68-1.725 0.080-3.38 0.365-4.925 0.835-0.9 0.275-1.395 1.185-1.125 2.070 0.26 0.87 1.19 1.37 2.060 1.11 1.785-0.53 3.655-0.76 5.705-0.705 1.97 0.055 3.89 0.385 5.7 0.98 1.1 0.365 2.125 0.835 3.050 1.395 0.285 0.175 0.585 0.26 0.88 0.26 0.28 0 0.56-0.075 0.825-0.23 0.53-0.305 0.82-0.8 0.835-1.425 0-0.010 0-0.020 0-0.030-0.020-0.635-0.32-1.14-0.85-1.42zM24.265 18.475c-0.235 0.135-0.445 0.13-0.685-0.020-0.99-0.605-2.085-1.105-3.255-1.495-1.905-0.63-3.92-0.975-5.99-1.035-0.21-0.005-0.415-0.010-0.62-0.010-1.92 0-3.695 0.25-5.4 0.755-0.355 0.105-0.715-0.090-0.82-0.44-0.105-0.355 0.090-0.71 0.46-0.82 1.465-0.45 3.040-0.715 4.68-0.795 3.365-0.15 6.54 0.385 9.44 1.61 0.59 0.25 1.18 0.57 1.745 0.875l0.455 0.245c0.13 0.070 0.305 0.205 0.32 0.56-0.010 0.265-0.11 0.445-0.33 0.57z"></path>
<path d="M23.005 20.85c-0.415-0.24-0.91-0.52-1.425-0.765-2.265-1.085-4.76-1.62-7.625-1.645-0.010 0-0.020 0-0.035 0l-0.605 0.030c-0.45 0.020-0.895 0.045-1.345 0.080-1.22 0.1-2.5 0.305-3.8 0.61-0.475 0.11-0.83 0.43-0.995 0.895-0.185 0.52-0.085 1.030 0.285 1.44 0.255 0.28 0.72 0.585 1.46 0.415 2.375-0.535 4.51-0.71 6.525-0.54 2.285 0.19 4.28 0.82 6.1 1.915 0.255 0.155 0.525 0.225 0.79 0.225 0.48 0 0.93-0.24 1.2-0.69 0.205-0.335 0.265-0.72 0.17-1.085-0.1-0.36-0.345-0.68-0.7-0.885zM22.675 22.31c-0.13 0.22-0.38 0.265-0.615 0.125-1.925-1.16-4.12-1.855-6.53-2.055-0.52-0.045-1.050-0.065-1.59-0.065-1.645 0-3.375 0.205-5.24 0.625-0.305 0.070-0.415-0.025-0.5-0.115-0.12-0.13-0.145-0.26-0.085-0.43 0.050-0.145 0.14-0.225 0.28-0.26 1.255-0.295 2.485-0.495 3.65-0.59 0.44-0.035 0.875-0.060 1.315-0.080l0.595-0.030c2.71 0.025 5.060 0.535 7.185 1.55 0.485 0.23 0.955 0.5 1.355 0.73 0.12 0.070 0.2 0.165 0.23 0.28 0.030 0.1 0.015 0.21-0.050 0.315z"></path>
</symbol>
</defs>
</svg>
