<?xml version="1.0" ?><svg id="Layer_3" style="enable-background:new 0 0 64 64;" version="1.0" viewBox="0 0 64 64" xml:space="preserve" xmlns="http://www.w3.org/2000/svg" xmlns:xlink="http://www.w3.org/1999/xlink"><g><path d="M32,0.58C14.68,0.58,0.58,14.68,0.58,32S14.68,63.42,32,63.42S63.42,49.32,63.42,32S49.32,0.58,32,0.58z M32,61.42   C15.78,61.42,2.58,48.22,2.58,32C2.58,15.78,15.78,2.58,32,2.58S61.42,15.78,61.42,32C61.42,48.22,48.22,61.42,32,61.42z"/><path d="M53.54,22.94c-1.75-1.07-3.7-1.98-5.96-2.81c-5.85-2.14-12.19-3.15-19.36-3.15l-0.9-0.01c-0.68-0.01-1.36-0.02-2.04,0.01   c-3.9,0.16-7.42,0.68-10.85,1.61c-0.47,0.13-1.01,0.27-1.51,0.53c-1.69,0.87-2.45,2.96-1.72,4.75c0.7,1.74,2.59,2.68,4.49,2.24   l0.79-0.18c1.62-0.38,3.29-0.77,4.93-1.01c4.04-0.58,8.19-0.62,12.7-0.13c6.38,0.7,11.37,2.19,15.72,4.69   c0.57,0.33,1.18,0.49,1.79,0.49c0.73,0,1.47-0.24,2.15-0.7c1.06-0.73,1.67-1.93,1.64-3.2C55.35,24.79,54.66,23.62,53.54,22.94z    M52.61,27.63c-0.62,0.43-1.21,0.47-1.8,0.13c-4.59-2.65-9.83-4.22-16.5-4.95c-2.15-0.23-4.22-0.35-6.24-0.35   c-2.38,0-4.68,0.16-6.96,0.49c-1.73,0.25-3.44,0.65-5.1,1.04l-0.78,0.18c-0.92,0.22-1.85-0.22-2.18-1.04   c-0.34-0.84,0.01-1.81,0.79-2.22c0.31-0.16,0.7-0.27,1.21-0.41c3.19-0.87,6.56-1.36,10.31-1.52c0.65-0.03,1.29-0.02,1.94-0.01   l0.92,0.01c0,0,0,0,0,0c0.06,0,0.11,0,0.17,0c6.87,0,12.92,0.99,18.5,3.03c2.13,0.78,3.97,1.64,5.6,2.64   c0.54,0.33,0.86,0.87,0.88,1.48C53.4,26.73,53.12,27.28,52.61,27.63z"/><path d="M49.49,32.93l-0.89-0.48c-1.18-0.64-2.4-1.3-3.67-1.84c-6.08-2.56-12.72-3.7-19.75-3.36c-3.45,0.16-6.76,0.73-9.85,1.67   c-1.8,0.55-2.79,2.37-2.25,4.14c0.52,1.74,2.38,2.74,4.12,2.22c3.57-1.06,7.31-1.52,11.41-1.41c3.94,0.11,7.78,0.77,11.4,1.96   c2.2,0.73,4.25,1.67,6.1,2.79c0.57,0.35,1.17,0.52,1.76,0.52c0.56,0,1.12-0.15,1.65-0.46c1.06-0.61,1.64-1.6,1.67-2.85   c0-0.02,0-0.04,0-0.06C51.15,34.5,50.55,33.49,49.49,32.93z M48.53,36.95c-0.47,0.27-0.89,0.26-1.37-0.04   c-1.98-1.21-4.17-2.21-6.51-2.99c-3.81-1.26-7.84-1.95-11.98-2.07c-0.42-0.01-0.83-0.02-1.24-0.02c-3.84,0-7.39,0.5-10.8,1.51   c-0.71,0.21-1.43-0.18-1.64-0.88c-0.21-0.71,0.18-1.42,0.92-1.64c2.93-0.9,6.08-1.43,9.36-1.59C32,28.93,38.35,30,44.15,32.45   c1.18,0.5,2.36,1.14,3.49,1.75l0.91,0.49c0.26,0.14,0.61,0.41,0.64,1.12C49.17,36.34,48.97,36.7,48.53,36.95z"/><path d="M46.01,41.7c-0.83-0.48-1.82-1.04-2.85-1.53c-4.53-2.17-9.52-3.24-15.25-3.29c-0.02,0-0.04,0-0.07,0l-1.21,0.06   c-0.9,0.04-1.79,0.09-2.69,0.16c-2.44,0.2-5,0.61-7.6,1.22c-0.95,0.22-1.66,0.86-1.99,1.79c-0.37,1.04-0.17,2.06,0.57,2.88   c0.51,0.56,1.44,1.17,2.92,0.83c4.75-1.07,9.02-1.42,13.05-1.08c4.57,0.38,8.56,1.64,12.2,3.83c0.51,0.31,1.05,0.45,1.58,0.45   c0.96,0,1.86-0.48,2.4-1.38c0.41-0.67,0.53-1.44,0.34-2.17C47.21,42.75,46.72,42.11,46.01,41.7z M45.35,44.62   c-0.26,0.44-0.76,0.53-1.23,0.25c-3.85-2.32-8.24-3.71-13.06-4.11c-1.04-0.09-2.1-0.13-3.18-0.13c-3.29,0-6.75,0.41-10.48,1.25   c-0.61,0.14-0.83-0.05-1-0.23c-0.24-0.26-0.29-0.52-0.17-0.86c0.1-0.29,0.28-0.45,0.56-0.52c2.51-0.59,4.97-0.99,7.3-1.18   c0.88-0.07,1.75-0.12,2.63-0.16l1.19-0.06c5.42,0.05,10.12,1.07,14.37,3.1c0.97,0.46,1.91,1,2.71,1.46   c0.24,0.14,0.4,0.33,0.46,0.56C45.51,44.19,45.48,44.41,45.35,44.62z"/></g></svg>